<?xml version="1.0" encoding="utf-8"?>
<!-- Generator: Adobe Illustrator 19.2.1, SVG Export Plug-In . SVG Version: 6.00 Build 0)  -->
<svg version="1.1" id="Layer_1" xmlns="http://www.w3.org/2000/svg" xmlns:xlink="http://www.w3.org/1999/xlink" x="0px" y="0px"
	 viewBox="0 0 455.9 455.9" style="enable-background:new 0 0 455.9 455.9;" xml:space="preserve">
<style type="text/css">
	.st0{fill:#231F20;}
</style>
<g>
	<path class="st0" d="M296.1,249.6c11.3-14.9,17.3-32.8,17.3-51.6c0-23.1-9-44.7-25.5-60.9c-16.4-16.2-38.2-24.9-61.2-24.6
		c-22.3,0.3-43.4,9.3-59.3,25.2c-15.9,16-24.7,37.1-24.9,59.4c-0.2,19.2,5.9,37.3,17.4,52.5c18.8,24.7,29.1,54.9,29.1,85.1v33
		c0,14.7,11.9,26.6,26.6,26.6h24.7c14.7,0,26.6-11.9,26.6-26.6v-33C266.9,304.3,276.9,274.8,296.1,249.6z M168.6,243.1
		c-10.1-13.2-15.3-29.1-15.2-45.8c0.4-40.1,33.3-73.2,73.4-73.8c20.1-0.3,39.1,7.3,53.4,21.4c14.3,14.1,22.2,33,22.2,53.1
		c0,16.4-5.2,31.9-15.1,45c-20.2,26.6-31,57.6-31.5,89.8H200C199.5,300.8,188.4,269.1,168.6,243.1z M200,364.1v-4.4l56,6.4v1.7
		c0,0.9-0.1,1.8-0.2,2.7L200,364.1z M200,348.7v-5h56v11.4L200,348.7z M215.6,383.5c-5.9,0-11-3.3-13.7-8.1l47.2,5.4
		c-2.5,1.7-5.5,2.7-8.8,2.7H215.6L215.6,383.5z"/>
	<path class="st0" d="M173.8,206.2c-0.4-2.9-0.6-5.8-0.6-8.8s-2.4-5.5-5.4-5.5s-5.5,2.4-5.5,5.4c0,3.5,0.2,7,0.7,10.5
		c0.4,2.7,2.7,4.7,5.4,4.7c0.3,0,0.5,0,0.8-0.1C172.1,212,174.2,209.2,173.8,206.2L173.8,206.2z"/>
	<path class="st0" d="M206,289.4c0.6,0,1.1-0.1,1.7-0.3c2.9-0.9,4.4-4,3.5-6.9c-6.1-18.5-15.1-35.7-26.9-51.1
		c-1.9-2.6-3.7-5.3-5.1-8.1c-1.4-2.7-4.7-3.7-7.4-2.4c-2.7,1.4-3.7,4.7-2.4,7.4c1.7,3.4,3.8,6.6,6.1,9.7
		c11,14.5,19.5,30.6,25.2,47.9C201.6,288,203.7,289.4,206,289.4L206,289.4z"/>
	<path class="st0" d="M285.5,216.7c-2.8-1.2-6,0.1-7.2,2.9c-1.7,4-4,7.9-6.7,11.4c-1.8,2.4-1.4,5.8,1.1,7.7c1,0.8,2.2,1.1,3.3,1.1
		c1.7,0,3.3-0.7,4.4-2.2c3.2-4.3,5.9-8.9,8-13.7C289.6,221.2,288.3,217.9,285.5,216.7L285.5,216.7z"/>
	<path class="st0" d="M227.9,143.2c30.2,0,54.8,24.6,54.8,54.8c0,1.7-0.1,3.4-0.2,5.1c-0.3,3,1.9,5.7,5,6c0.2,0,0.3,0,0.5,0
		c2.8,0,5.2-2.1,5.4-5c0.2-2,0.3-4.1,0.3-6.1c0-36.2-29.5-65.7-65.7-65.7c-3,0-5.5,2.5-5.5,5.5C222.5,140.8,224.9,143.2,227.9,143.2
		L227.9,143.2z"/>
	<path class="st0" d="M227.9,103.1c3,0,5.5-2.5,5.5-5.5V66.9c0-3-2.5-5.5-5.5-5.5s-5.5,2.5-5.5,5.5v30.7
		C222.5,100.6,224.9,103.1,227.9,103.1z"/>
	<path class="st0" d="M172.5,113.9c1,1.8,2.9,2.7,4.7,2.7c0.9,0,1.9-0.2,2.7-0.7c2.6-1.5,3.5-4.9,2-7.5l-15.3-26.6
		c-1.5-2.6-4.9-3.5-7.5-2s-3.5,4.9-2,7.5L172.5,113.9z"/>
	<path class="st0" d="M345,260.2l-26.6-15.3c-2.6-1.5-6-0.6-7.5,2s-0.6,6,2,7.5l26.6,15.3c0.9,0.5,1.8,0.7,2.7,0.7
		c1.9,0,3.7-1,4.7-2.7C348.5,265.1,347.6,261.7,345,260.2L345,260.2z"/>
	<path class="st0" d="M110.9,137.7l26.6,15.3c0.9,0.5,1.8,0.7,2.7,0.7c1.9,0,3.7-1,4.7-2.7c1.5-2.6,0.6-6-2-7.5l-26.6-15.3
		c-2.6-1.5-6-0.6-7.5,2C107.3,132.8,108.2,136.2,110.9,137.7z"/>
	<path class="st0" d="M360,193.5h-30.7c-3,0-5.5,2.5-5.5,5.5s2.5,5.5,5.5,5.5H360c3,0,5.5-2.5,5.5-5.5
		C365.4,195.9,363,193.5,360,193.5z"/>
	<path class="st0" d="M132.1,198.9c0-3-2.5-5.5-5.5-5.5H95.9c-3,0-5.5,2.5-5.5,5.5s2.5,5.5,5.5,5.5h30.7
		C129.6,204.4,132.1,202,132.1,198.9z"/>
	<path class="st0" d="M315.7,153.7c0.9,0,1.9-0.2,2.7-0.7l26.6-15.3c2.6-1.5,3.5-4.9,2-7.5c-1.5-2.6-4.9-3.5-7.5-2L313,143.5
		c-2.6,1.5-3.5,4.9-2,7.5C312,152.8,313.8,153.7,315.7,153.7L315.7,153.7z"/>
	<path class="st0" d="M137.4,244.9l-26.6,15.3c-2.6,1.5-3.5,4.9-2,7.5c1,1.8,2.9,2.7,4.7,2.7c0.9,0,1.9-0.2,2.7-0.7l26.6-15.3
		c2.6-1.5,3.5-4.9,2-7.5C143.4,244.3,140,243.4,137.4,244.9z"/>
	<path class="st0" d="M275.9,115.9c0.9,0.5,1.8,0.7,2.7,0.7c1.9,0,3.7-1,4.7-2.7l15.3-26.6c1.5-2.6,0.6-6-2-7.5s-6-0.6-7.5,2
		l-15.3,26.6C272.4,111,273.3,114.4,275.9,115.9L275.9,115.9z"/>
</g>
</svg>
