<?xml version="1.0" encoding="utf-8"?>
<!-- Generator: Adobe Illustrator 19.2.1, SVG Export Plug-In . SVG Version: 6.00 Build 0)  -->
<svg version="1.1" id="Capa_1" xmlns="http://www.w3.org/2000/svg" xmlns:xlink="http://www.w3.org/1999/xlink" x="0px" y="0px"
	 viewBox="0 0 95 95" style="enable-background:new 0 0 95 95;" xml:space="preserve">
<g>
	<g id="presentation-training-teaching-meeting-discussion_1_">
		<path d="M25.5,33.5c0,3.3,2.7,6,6,6s6-2.7,6-6s-2.7-6-6-6S25.5,30.2,25.5,33.5z M35.5,33.5c0,2.2-1.8,4-4,4s-4-1.8-4-4s1.8-4,4-4
			S35.5,31.3,35.5,33.5z"/>
		<path d="M46.2,44.2l7-7c0.4-0.4,0.4-1,0-1.4l-3-3c-0.4-0.4-1-0.4-1.4-0.1L42,38.6l-6.7,2.9H23.5c-0.3,0-0.6,0.1-0.8,0.3l-7,8
			c-0.2,0.3-0.3,0.6-0.2,1l3,9c0.1,0.3,0.3,0.5,0.6,0.6c0.3,0.1,0.6,0.1,0.8,0l4-2c0.3-0.2,0.6-0.5,0.6-0.9v17c0,2.8,2.2,5,5,5h8
			c0.6,0,1-0.4,1-1V48.1l7.4-3.7C46,44.3,46.1,44.3,46.2,44.2z M24.5,57.5c0-0.1,0-0.2-0.1-0.4l-1.8-4.5l1.9-2.3V57.5z M37.1,46.6
			c-0.3,0.2-0.6,0.5-0.6,0.9v30h-4v-16c0-0.6-0.4-1-1-1c-0.6,0-1,0.4-1,1v16h-1c-1.7,0-3-1.3-3-3v-27c0-0.4-0.3-0.8-0.7-0.9
			c-0.4-0.1-0.8,0-1.1,0.3l-4,5c-0.2,0.3-0.3,0.7-0.1,1l1.7,4.1l-2.1,1.1l-2.5-7.4l6.3-7.2h11.5c0.1,0,0.3,0,0.4-0.1l7-3
			c0.1,0,0.2-0.1,0.3-0.2l6.3-5.4l1.6,1.6l-6.2,6.2L37.1,46.6z"/>
		<polygon points="29.5,47.5 30.5,47.5 30.5,55.5 32.5,55.5 32.5,47.5 33.5,47.5 33.5,45.5 29.5,45.5 		"/>
		<path d="M79.5,65.5c0-3.3-2.7-6-6-6c-2.1,0-3.9,1.1-5,2.7c-1.1-1.6-2.9-2.7-5-2.7s-3.9,1.1-5,2.7c-1.1-1.6-2.9-2.7-5-2.7
			c-3.3,0-6,2.7-6,6c0,2.1,1.1,3.9,2.7,5c-1.6,1.1-2.7,2.9-2.7,5v4h2v-4c0-2.2,1.8-4,4-4s4,1.8,4,4v4h2v-4c0-2.2,1.8-4,4-4
			s4,1.8,4,4v4h2v-4c0-2.2,1.8-4,4-4s4,1.8,4,4v4h2v-4c0-2.1-1.1-3.9-2.7-5C78.4,69.4,79.5,67.6,79.5,65.5z M63.5,61.5
			c2.2,0,4,1.8,4,4s-1.8,4-4,4s-4-1.8-4-4S61.3,61.5,63.5,61.5z M49.5,65.5c0-2.2,1.8-4,4-4s4,1.8,4,4s-1.8,4-4,4
			S49.5,67.7,49.5,65.5z M58.5,72.2c-0.4-0.7-1-1.2-1.7-1.7c0.7-0.4,1.2-1,1.7-1.7c0.4,0.7,1,1.2,1.7,1.7
			C59.5,70.9,58.9,71.5,58.5,72.2z M68.5,72.2c-0.4-0.7-1-1.2-1.7-1.7c0.7-0.4,1.2-1,1.7-1.7c0.4,0.7,1,1.2,1.7,1.7
			C69.5,70.9,68.9,71.5,68.5,72.2z M73.5,69.5c-2.2,0-4-1.8-4-4s1.8-4,4-4s4,1.8,4,4S75.7,69.5,73.5,69.5z"/>
		<path d="M78.5,15.5h-37c-0.6,0-1,0.4-1,1v19h2v-18h35v27c0,1.7-1.3,3-3,3h-31v2h31c2.8,0,5-2.2,5-5v-28
			C79.5,15.9,79.1,15.5,78.5,15.5z"/>
		<path d="M57.5,20.5h-10c-0.6,0-1,0.4-1,1v4c0,0.6,0.4,1,1,1h10c0.6,0,1-0.4,1-1v-1h3v1c0,0.6,0.4,1,1,1h4v3h-4c-0.6,0-1,0.4-1,1v4
			c0,0.6,0.4,1,1,1h4v3h-4c-0.6,0-1,0.4-1,1v4c0,0.6,0.4,1,1,1h10c0.6,0,1-0.4,1-1v-4c0-0.6-0.4-1-1-1h-4v-3h4c0.6,0,1-0.4,1-1v-4
			c0-0.6-0.4-1-1-1h-4v-3h4c0.6,0,1-0.4,1-1v-4c0-0.6-0.4-1-1-1h-10c-0.6,0-1,0.4-1,1v1h-3v-1C58.5,20.9,58.1,20.5,57.5,20.5z
			 M56.5,24.5h-8v-2h8V24.5z M71.5,42.5h-8v-2h8V42.5z M71.5,33.5h-8v-2h8V33.5z M63.5,22.5h8v2h-8V22.5z"/>
		<rect x="47.5" y="28.5" width="11" height="2"/>
		<rect x="54.5" y="32.5" width="4" height="2"/>
		<rect x="55.5" y="36.5" width="3" height="2"/>
		<rect x="52.5" y="40.5" width="6" height="2"/>
		<path d="M19.5,25.5H20l2.7,3.6c0.2,0.3,0.5,0.4,0.8,0.4c0.1,0,0.2,0,0.3-0.1c0.4-0.1,0.7-0.5,0.7-0.9v-3h6c1.7,0,3-1.3,3-3v-4
			c0-1.7-1.3-3-3-3h-11c-1.7,0-3,1.3-3,3v4C16.5,24.2,17.8,25.5,19.5,25.5z M18.5,18.5c0-0.6,0.4-1,1-1h11c0.6,0,1,0.4,1,1v4
			c0,0.6-0.4,1-1,1h-7c-0.6,0-1,0.4-1,1v1l-1.2-1.6c-0.2-0.3-0.5-0.4-0.8-0.4h-1c-0.6,0-1-0.4-1-1V18.5z"/>
		<rect x="20.5" y="19.5" width="9" height="2"/>
	</g>
	<g id="Layer_1_21_">
	</g>
</g>
</svg>
