<?xml version="1.0" encoding="utf-8"?>
<!-- Generator: Adobe Illustrator 19.2.1, SVG Export Plug-In . SVG Version: 6.00 Build 0)  -->
<svg version="1.1" id="Capa_1" xmlns="http://www.w3.org/2000/svg" xmlns:xlink="http://www.w3.org/1999/xlink" x="0px" y="0px"
	 viewBox="0 0 60 60" style="enable-background:new 0 0 60 60;" xml:space="preserve">
<style type="text/css">
	.st0{fill:#231F20;}
</style>
<g>
	<path class="st0" d="M48.9,13.9h-7.3l-5.8-3.3c-0.2-0.1-0.5-0.1-0.7,0s-0.4,0.4-0.4,0.6v0.6h-5.4v2H11.1c-0.7,0-1.3,0.6-1.3,1.3
		v29.7c0,0.7,0.6,1.3,1.3,1.3l0,0v2.7h6.7v-2.7h11.5v2h5.4v0.5c0,0.3,0.1,0.5,0.4,0.7c0.1,0.1,0.2,0.1,0.4,0.1c0.1,0,0.3,0,0.4-0.1
		l5.6-3.2h0.7v2.7h6.7v-2.7l0,0c0.7,0,1.3-0.6,1.3-1.3V15.2C50.2,14.5,49.6,13.9,48.9,13.9z M16.5,47.6h-4v-1.3h4V47.6z M17.9,44.9
		L17.9,44.9h-6.7l0,0V15.2h18.2v1.3H14.1c-0.9,0-1.6,0.7-1.6,1.6V42c0,0.9,0.7,1.6,1.6,1.6h5.2h5.4h4.7v1.3L17.9,44.9z M24.6,42.2
		v-0.7h2.7v0.7H24.6z M19.2,35.4v0.7h-2.7v-0.7H19.2z M19.2,38.1h-2.7v-0.7h2.7V38.1z M16.5,39.5h2.7v0.7h-2.7V39.5z M16.5,41.5h2.7
		v0.7h-2.7V41.5z M20.6,35.4h2.7v6.7h-2.7V35.4z M27.3,38.1h-2.7v-0.7h2.7V38.1z M24.6,39.5h2.7v0.7h-2.7V39.5z M27.3,36.1h-2.7
		v-0.7h2.7V36.1z M28.7,34.8c0-0.4-0.3-0.7-0.7-0.7h-3.4h-0.7h-4h-0.7h-3.4c-0.4,0-0.7,0.3-0.7,0.7v7.4H14c-0.1,0-0.2-0.1-0.2-0.2
		V30.7h5.4h5.4h4.7v11.5h-0.7v-7.4H28.7z M29.3,29.4h-0.7V22c0-0.4-0.3-0.7-0.7-0.7h-3.4h-0.7h-4h-0.7h-3.4c-0.4,0-0.7,0.3-0.7,0.7
		v7.4h-1.3V18.2c0-0.1,0.1-0.2,0.2-0.2h15.3v11.4H29.3z M24.6,29.4v-0.7h2.7v0.7H24.6z M19.2,22.6v0.7h-2.7v-0.7H19.2z M19.2,25.3
		h-2.7v-0.7h2.7V25.3z M16.5,26.7h2.7v0.7h-2.7V26.7z M16.5,28.7h2.7v0.7h-2.7V28.7z M20.6,22.6h2.7v6.7h-2.7V22.6z M27.3,25.3h-2.7
		v-0.7h2.7V25.3z M24.6,26.7h2.7v0.7h-2.7V26.7z M27.3,23.3h-2.7v-0.7h2.7V23.3z M30.7,46.9v-0.7v-2.7v-27v-2.7v-0.7h4v33.7
		L30.7,46.9L30.7,46.9z M36.1,12.3l2.8,1.6h-0.1l6.7,3.8V20c-0.4,0-0.7,0.3-0.7,0.7s0.3,0.7,0.7,0.7V22c-0.4,0-0.7,0.3-0.7,0.7
		s0.3,0.7,0.7,0.7v13.5c-0.4,0-0.7,0.3-0.7,0.7s0.3,0.7,0.7,0.7V39c-0.4,0-0.7,0.3-0.7,0.7s0.3,0.7,0.7,0.7v2.2l-9.4,5.3V12.3z
		 M47.5,47.6h-4v-1.3h4V47.6z M48.9,44.9H44l2.9-1.6v-0.1v-3h0.7c0.4,0,0.7-0.3,0.7-0.7s-0.3-0.7-0.7-0.7h-0.7v-0.7h0.7
		c0.4,0,0.7-0.3,0.7-0.7s-0.3-0.7-0.7-0.7h-0.7V23.3h0.7c0.4,0,0.7-0.3,0.7-0.7S47.9,22,47.5,22h-0.7v-0.7h0.7
		c0.4,0,0.7-0.3,0.7-0.7s-0.3-0.7-0.7-0.7h-0.7v-3.1v-0.1L44,15.2h4.8v29.7H48.9z"/>
	<circle class="st0" cx="32.7" cy="14.5" r="0.7"/>
	<circle class="st0" cx="32.7" cy="18.5" r="0.7"/>
	<circle class="st0" cx="32.7" cy="41.5" r="0.7"/>
	<circle class="st0" cx="32.7" cy="37.4" r="0.7"/>
	<circle class="st0" cx="32.7" cy="22.6" r="0.7"/>
	<circle class="st0" cx="32.7" cy="45.5" r="0.7"/>
	<path class="st0" d="M37.4,33.4c-0.4,0-0.7,0.3-0.7,0.7s0.3,0.7,0.7,0.7c1.5,0,2.7-1.2,2.7-2.7v-4c0-1.5-1.2-2.7-2.7-2.7
		c-0.4,0-0.7,0.3-0.7,0.7c0,0.4,0.3,0.7,0.7,0.7c0.7,0,1.4,0.6,1.4,1.4v4C38.8,32.8,38.2,33.4,37.4,33.4z"/>
	<path class="st0" d="M37.4,22.6c-0.4,0-0.7,0.3-0.7,0.7c0,0.4,0.3,0.7,0.7,0.7c2.2,0,4.1,1.8,4.1,4.1v4c0,2.2-1.8,4.1-4.1,4.1
		c-0.4,0-0.7,0.3-0.7,0.7s0.3,0.7,0.7,0.7c3,0,5.4-2.4,5.4-5.4v-4C42.8,25,40.4,22.6,37.4,22.6z"/>
</g>
</svg>
