<?xml version="1.0" encoding="utf-8"?>
<!-- Generator: Adobe Illustrator 19.2.1, SVG Export Plug-In . SVG Version: 6.00 Build 0)  -->
<svg version="1.1" id="Layer_2" xmlns="http://www.w3.org/2000/svg" xmlns:xlink="http://www.w3.org/1999/xlink" x="0px" y="0px"
	 viewBox="0 0 150 150" style="enable-background:new 0 0 150 150;" xml:space="preserve">
<style type="text/css">
	.st0{fill:#231F20;}
</style>
<path class="st0" d="M75,43.4c-7.3,0-13.2-5.9-13.2-13.2c0-2.4,0.8-4.8,2.2-7l0.2-0.3L61.8,6.8c0-0.9,0.1-1.3,0.3-1.5
	c0.2-0.1,0.5-0.2,0.7-0.2s0.6,0.1,0.7,0.2l5.9,3.9l4-8.1c0.2-0.5,0.8-0.7,1.2-0.7s1,0.2,1.2,0.6L80,9.3l5.9-3.9
	c0.2-0.1,0.5-0.2,0.7-0.2c0.3,0,0.6,0.1,0.7,0.2l0.1,0l0.1,0c0.5,0.3,0.8,0.7,0.7,1.2l-2.4,16.3l0.2,0.3c1.4,2.1,2.2,4.6,2.2,7
	C88.2,37.5,82.3,43.4,75,43.4z M75,19.8c-5.8,0-10.4,4.7-10.4,10.4c0,5.8,4.7,10.4,10.4,10.4c5.8,0,10.4-4.7,10.4-10.4
	C85.4,24.4,80.8,19.8,75,19.8z M75,17c2.5,0,5.1,0.8,7.2,2.2l1.3,0.9l1.5-11l-4.5,3.3c-0.2,0.1-0.4,0.2-0.7,0.2
	c-0.2,0-0.3,0-0.5-0.1l-0.2-0.1c-0.4-0.2-0.6-0.3-0.7-0.5l0-0.1L75,4.8l-3.5,7.3c-0.1,0.1-0.3,0.4-0.7,0.6c-0.6,0-1,0-1.4-0.3
	L65,9.6L66.4,20l1.3-0.8C70.2,17.8,72.6,17,75,17z"/>
<path class="st0" d="M103.3,149.5c-0.9,0-1.4-0.5-1.4-1.4v-10.4H50.4v10.4c0,0.9-0.5,1.4-1.4,1.4H0.5v-2.7h47.2v-10.4
	c0-0.7,0.5-1.4,1.4-1.4h5.9l2.1-23h-1.1c-1.6,0-2.7-0.2-4.3-1.4c-0.3-0.3-0.5-0.5-0.8-0.6c-0.2-0.1-0.4-0.3-0.6-0.5l-0.1-0.1
	c-0.2-0.2-0.4-0.3-0.6-0.5c-1-0.8-2-1.6-3.1-1.6c-1.2,0-2.2,0.6-2.9,1.1c-2.5,1.8-4.8,4-6.8,6.6c-0.2,0.3-0.5,0.6-1.1,0.6
	c-0.1,0-0.2,0-0.3,0l0,0c-0.9-0.7-0.9-1.4-0.8-1.8c2.7-9.6,6.2-18.3,10.7-26.6l1.2-1.6l0,0C50.6,78,54.8,70,55,62.5l0-0.6l-13.2-6.6
	c-0.2-0.2-0.4-0.2-0.5-0.3c0,0-0.1,0-0.1-0.1L24.8,38.5c-0.6-0.6-0.6-1.3,0-1.9l9.4-9.4c0.3-0.3,0.6-0.4,0.9-0.4
	c0.3,0,0.7,0.1,0.9,0.4l16.2,16.2l18.3,6.7h8.8l18.8-6.7l16.2-16.2c0.3-0.3,0.6-0.4,0.9-0.4c0.3,0,0.7,0.1,0.9,0.4l9.4,9.4
	c0.6,0.6,0.6,1.3,0,1.9L109.2,55c-0.1,0.1-0.1,0.1-0.2,0.2H109l-15.3,7.6l0.5,0.9c1.7,3.2,4.1,5.9,6.6,8.8l1.1,1.3l0.6,0.6
	c1.5,1.7,3.1,3.6,4.6,5.5c6,7.6,9.2,16.2,9.7,25.6c0,2-0.3,4-0.9,5.5c-0.1,0.3-0.5,1.3-1.2,2c-0.9,0.7-2.1,1.1-3.5,1.1h-1.4
	c-3.2-0.2-6.4-0.9-9.3-2.1l-0.8-0.3l-0.5-0.2c-0.9-0.4-1.8-0.7-2.7-0.8c-0.5-0.1-1-0.2-1.4-0.2c-0.5,0-0.9,0.1-1.4,0.2l-0.8,0.3
	l2.3,23.9h8.2c0.9,0,1.4,0.5,1.4,1.4v10.4h44.8v2.7H103.3z M75,90.2c0.7,0,1.2,0.7,1.4,1.3l4.6,43.5h11.4l-4.6-50.4l0-21.4
	c0-0.5,0.2-0.9,0.7-1.3l18.7-9.2l15.4-15.4l-7.5-7.5L99.5,45.3c-0.1,0.1-0.2,0.2-0.3,0.2H99l-0.1,0.1l-15.5,5.8l-7.2,19.3
	c-0.1,0.3-0.7,0.8-1.2,0.8c-0.5,0-1-0.2-1.2-0.7l0-0.1l-7.3-19.3l-15.7-5.9h-0.2c-0.1,0-0.2-0.1-0.2-0.2L34.9,29.7l-7.5,7.5
	l15.2,15.5L61.3,62c0.8,0.4,0.9,0.8,0.9,1.2v21.2L57.6,135h11.4l4.6-43.6C73.8,90.8,74.3,90.2,75,90.2z M71.8,135h6.5L76,114.1h-2
	L71.8,135z M96.6,107.9c1.7,0.2,3.1,0.8,3.9,1.1l0.1,0l1,0.3c3,1,6.1,1.7,8.9,1.9c0.5,0.1,0.9,0.1,1.3,0.1c0.7,0,1.1-0.1,1.4-0.4
	l0.3-0.3v-0.4c0,0,0,0,0,0c0,0,0-0.1,0.1-0.3c0.6-1.4,0.6-3,0.6-4.5c-0.7-9.2-3.7-17.1-9.2-24.2c-1.7-2.2-3.4-4.1-5.3-6
	c-0.4-0.5-0.9-1-1.3-1.6c-2.1-2.5-4.4-5.1-6.1-7.9l-1.9-3.1v21.8l2,23.4H96.6z M53.2,108.1c1,1,1.8,1.1,2.9,1.3l1.4,0.2l2.2-25.1
	l0-20.7h-2.1l-0.1,0.9c-0.9,7.3-4.8,14.9-8.8,22l-0.9,1.7c-3.1,5.5-5.7,11.2-7.9,17.1l1.6,1c0.1-0.1,0.2-0.1,0.3-0.2
	c0.2-0.1,0.4-0.3,0.6-0.4c1.4-1.1,2.8-1.6,4.2-1.6c1.9,0.2,3.5,1.1,5.2,2.8l0.1,0.1l0.1,0.1c0.1,0,0.2,0.2,0.3,0.3
	C52.7,107.7,52.9,108,53.2,108.1z M75,66.2l5.2-13.4H69.8L75,66.2z"/>
<path class="st0" d="M118.5,74c0.5-10.4,8.8-18.7,19.2-19.2v2.7c-9,0.5-16,7.5-16.5,16.5H118.5z"/>
<path class="st0" d="M26.5,140.1c-0.2-32.6-11.9-60-25.9-61.3v-2.7c16,1.1,28.4,28.7,28.7,64H26.5z"/>
<path class="st0" d="M35.9,76.4c-0.5-9.8-7.9-18.2-16.5-18.8v-2.7c10.7,0.6,18.7,11.5,19.2,21.6H35.9z"/>
<path class="st0" d="M123.2,130.6c0.3-23.9,11.4-42,26.3-42.8v2.7c-12.7,0.9-23.3,18.8-23.6,40.1H123.2z"/>
<path class="st0" d="M127.9,81.1c0.6-9.4,10.2-16.4,19.2-16.8V67c-8.5,0.5-15.9,6.8-16.5,14.1H127.9z"/>
<path class="st0" d="M9.9,135.3c-0.5-4.7-4.7-8.9-9.4-9.4v-2.7c6.6,0.5,11.6,6.5,12.1,12.1H9.9z"/>
<rect x="135" y="7.6" class="st0" width="2.7" height="2.7"/>
<rect x="106.7" y="64.2" class="st0" width="2.7" height="2.7"/>
<rect x="130.3" y="21.8" class="st0" width="2.7" height="2.7"/>
<rect x="144.4" y="21.8" class="st0" width="2.7" height="2.7"/>
<rect x="139.7" y="43" class="st0" width="2.7" height="2.7"/>
<rect x="144.4" y="54.8" class="st0" width="2.7" height="2.7"/>
<rect x="139.7" y="123.2" class="st0" width="2.7" height="2.7"/>
<rect x="123.2" y="90.2" class="st0" width="2.7" height="2.7"/>
<rect x="123.2" y="137.3" class="st0" width="2.7" height="2.7"/>
<rect x="111.4" y="12.3" class="st0" width="2.7" height="2.7"/>
<rect x="28.8" y="12.3" class="st0" width="2.7" height="2.7"/>
<rect x="14.7" y="26.5" class="st0" width="2.7" height="2.7"/>
<rect x="10" y="12.3" class="st0" width="2.7" height="2.7"/>
<rect x="35.9" y="83.1" class="st0" width="2.7" height="2.7"/>
<rect x="17" y="68.9" class="st0" width="2.7" height="2.7"/>
<rect x="2.9" y="43" class="st0" width="2.7" height="2.7"/>
<rect x="2.9" y="99.6" class="st0" width="2.7" height="2.7"/>
</svg>
